<?xml version="1.0" encoding="UTF-8" ?>
<!DOCTYPE svg PUBLIC "-//W3C//DTD SVG 1.1//EN" "http://www.w3.org/Graphics/SVG/1.1/DTD/svg11.dtd">
<svg width="1000pt" height="1000pt" viewBox="0 0 1000 1000" version="1.1" xmlns="http://www.w3.org/2000/svg">
<path fill="#991C1C" d=" M 205.03 98.17 C 216.90 95.58 228.57 89.07 241.00 92.01 C 266.90 108.52 286.27 133.22 311.96 150.07 C 317.30 153.22 322.36 158.04 329.03 157.75 C 355.57 160.04 382.25 158.68 408.86 158.97 C 409.83 148.34 410.82 137.71 412.31 127.14 C 413.93 116.45 419.95 107.18 426.13 98.57 C 440.22 99.90 453.63 104.63 467.42 107.55 C 473.59 108.57 479.69 111.69 482.16 117.79 C 492.52 137.65 501.47 158.24 512.10 177.97 C 514.35 182.16 517.97 185.52 522.11 187.82 C 541.73 199.31 563.07 207.34 583.17 217.88 C 592.14 222.90 601.78 226.49 611.06 230.85 C 611.04 232.66 610.99 236.29 610.97 238.10 C 595.29 232.39 578.82 228.26 562.01 228.86 C 542.56 228.21 522.13 231.51 506.02 243.05 C 490.37 251.96 483.35 269.49 476.60 285.26 C 461.33 283.11 446.09 280.02 430.63 279.89 C 413.77 281.28 396.73 280.27 380.02 283.21 C 359.09 287.92 339.01 296.84 322.04 310.06 C 316.26 314.56 310.07 319.12 306.88 325.95 C 298.83 342.05 296.56 360.20 296.65 377.99 C 294.94 398.80 299.48 419.71 306.80 439.10 C 318.54 470.15 336.76 498.47 358.59 523.38 C 377.64 546.72 401.03 566.18 425.61 583.45 C 475.53 618.22 534.69 641.63 595.99 643.08 C 623.65 644.66 651.70 638.20 676.00 624.98 C 686.91 618.42 698.42 611.05 704.13 599.20 C 712.00 582.99 716.46 565.08 716.26 547.00 C 718.44 520.40 710.52 494.52 702.66 469.46 C 718.40 459.62 733.21 446.17 739.00 427.99 C 747.49 406.80 743.33 383.60 738.70 362.04 C 745.01 362.10 751.42 361.03 757.73 361.73 C 763.20 364.99 767.85 369.74 773.97 371.94 C 786.59 375.43 799.77 376.08 812.55 378.83 C 823.85 381.46 835.53 381.87 846.88 384.28 C 850.95 384.94 852.57 389.20 854.81 392.12 C 860.92 401.71 866.95 411.36 873.18 420.88 C 875.98 424.85 878.28 430.61 875.05 435.02 C 865.05 451.82 845.50 457.98 828.20 464.40 C 824.85 465.43 824.44 469.46 826.09 472.32 C 831.38 486.25 835.34 500.63 840.28 514.69 C 843.93 525.36 844.44 537.73 852.80 546.18 C 865.57 558.28 881.22 566.63 895.76 576.32 C 908.38 584.80 922.92 590.42 934.27 600.74 C 941.13 609.13 939.03 620.66 939.46 630.69 C 938.57 637.51 940.74 645.19 937.57 651.59 C 931.95 658.88 925.84 669.57 914.95 667.99 C 902.70 665.37 890.55 662.21 878.51 658.75 C 866.18 655.65 853.96 651.31 841.14 650.97 C 834.82 659.49 832.67 670.02 827.02 678.91 C 823.16 688.88 816.60 699.73 820.10 710.82 C 833.22 736.97 852.51 759.30 868.02 783.98 C 872.07 791.06 879.66 797.74 877.66 806.66 C 868.36 819.19 855.22 828.30 843.76 838.77 C 838.17 843.06 833.04 849.97 825.05 848.97 C 820.50 847.68 816.41 845.17 812.73 842.26 C 789.93 822.33 766.64 802.95 743.45 783.49 C 737.48 777.80 729.19 775.74 721.08 777.27 C 697.73 782.79 674.49 788.91 651.05 794.08 C 650.48 821.74 651.41 849.39 651.97 877.02 C 652.83 889.18 643.35 898.71 633.93 904.90 C 629.04 909.42 621.86 907.57 615.94 907.33 C 599.88 905.41 583.64 904.98 567.70 902.16 C 560.78 900.48 559.05 892.32 556.22 886.83 C 545.06 857.71 533.50 828.75 522.70 799.49 C 520.90 794.23 518.84 788.33 513.78 785.31 C 505.99 780.06 497.19 776.61 488.39 773.48 C 459.58 762.33 431.17 750.14 402.13 739.60 C 392.82 736.28 382.82 740.66 375.55 746.48 C 356.81 762.10 337.52 777.08 319.31 793.33 C 315.33 796.33 311.38 800.69 306.00 800.83 C 302.19 800.49 299.04 798.02 295.98 795.96 C 281.06 784.85 265.50 774.63 250.77 763.28 C 247.43 760.35 243.01 757.96 241.41 753.57 C 239.66 746.59 243.74 740.27 246.00 733.99 C 254.27 715.09 261.86 695.91 269.96 676.94 C 274.38 666.90 278.86 654.25 271.52 644.39 C 258.92 628.15 245.49 612.55 231.99 597.05 C 219.06 582.02 207.80 565.36 192.61 552.44 C 189.71 549.75 185.54 549.97 181.86 549.50 C 157.34 548.87 132.90 546.73 108.42 545.32 C 95.40 543.82 82.07 544.79 69.26 541.76 C 59.27 537.95 56.47 526.97 52.82 518.15 C 47.91 505.14 41.29 492.77 37.63 479.31 C 36.71 476.33 38.55 473.33 39.38 470.61 C 41.86 464.64 44.15 458.33 48.35 453.31 C 53.49 448.56 60.51 446.98 66.98 444.92 C 91.92 438.14 116.73 430.83 141.77 424.38 C 142.05 407.88 139.30 391.51 138.79 375.04 C 137.83 364.17 138.28 352.81 134.40 342.45 C 124.44 329.88 108.77 324.08 95.91 315.13 C 77.06 302.42 56.78 291.92 38.33 278.64 C 31.69 274.07 32.03 265.56 34.92 258.97 C 42.27 241.01 49.37 222.72 59.89 206.33 C 69.78 207.49 80.05 208.60 89.14 212.97 C 95.38 216.02 102.61 215.92 108.85 219.03 C 119.99 222.49 130.88 227.05 142.52 228.69 C 152.31 230.66 161.72 234.26 171.55 236.07 C 175.82 237.95 179.63 235.04 182.93 232.90 C 193.95 225.48 202.84 215.44 213.34 207.36 C 216.58 204.36 220.68 201.95 222.75 197.93 C 220.62 188.23 213.55 180.63 208.82 172.16 C 201.27 158.65 191.24 146.68 184.18 132.91 C 180.00 118.66 189.97 100.72 205.03 98.17 Z" />
<path fill="#991C1C" d=" M 935.98 114.95 C 948.85 110.66 962.12 120.91 966.37 132.65 C 969.89 143.41 960.55 153.41 951.32 157.29 C 937.73 160.48 923.29 157.44 909.90 161.87 C 903.61 164.10 897.57 166.96 891.38 169.44 C 858.17 183.18 828.94 204.38 798.80 223.58 C 793.34 217.52 788.33 210.84 785.56 203.10 C 809.62 189.67 833.65 176.08 858.85 164.86 C 873.40 157.51 888.92 151.84 902.19 142.18 C 914.05 133.79 921.41 119.37 935.98 114.95 Z" />
<path fill="#991C1C" d=" M 759.16 154.10 C 767.60 142.44 783.52 134.47 797.85 139.26 C 813.59 143.60 827.22 153.53 838.15 165.45 C 833.40 169.11 828.25 172.20 823.08 175.22 C 812.08 166.89 800.07 155.96 785.10 159.07 C 776.11 162.13 774.82 172.83 775.29 181.07 C 778.82 208.92 795.67 237.11 822.90 247.13 C 828.68 248.57 836.20 250.61 841.27 246.28 C 846.18 240.52 845.68 232.05 846.02 225.00 C 846.36 217.61 843.58 210.64 841.06 203.85 C 846.27 200.35 851.66 197.10 857.27 194.25 C 865.10 205.85 868.15 220.08 868.65 233.90 C 868.79 243.63 865.20 253.33 858.26 260.24 C 852.70 266.51 844.38 269.09 836.67 271.48 C 827.34 273.59 818.18 270.09 810.00 265.98 C 781.42 249.09 760.56 219.79 753.69 187.33 C 752.50 176.23 751.69 163.37 759.16 154.10 Z" />
<path fill="#991C1C" d=" M 618.96 238.01 C 615.46 208.03 643.77 181.00 673.00 181.63 C 701.74 182.61 728.35 197.98 748.67 217.51 C 741.23 222.27 733.39 226.37 725.32 229.93 C 715.24 222.62 705.43 213.94 693.03 210.95 C 681.22 207.64 666.80 206.22 656.82 214.84 C 651.40 221.51 649.88 230.57 650.10 238.95 C 652.03 253.03 658.62 266.04 666.05 277.96 C 676.88 292.55 688.63 307.49 705.18 315.86 C 713.07 319.71 720.96 324.69 730.03 324.87 C 739.64 325.25 752.19 326.56 758.65 317.72 C 765.99 299.45 762.18 278.59 752.47 261.98 C 759.48 256.60 766.30 250.93 773.76 246.19 C 785.56 265.56 795.90 287.60 793.81 310.89 C 791.70 330.70 775.76 345.94 757.96 352.90 C 737.57 357.11 714.75 355.76 696.01 345.94 C 672.96 331.82 651.42 313.88 637.90 290.08 C 628.63 274.13 619.10 256.98 618.96 238.01 Z" />
<path fill="#991C1C" d=" M 667.41 216.45 C 681.91 212.41 694.16 223.07 704.25 231.77 C 706.83 234.43 711.51 240.02 707.23 243.19 C 694.62 252.05 681.23 259.79 668.66 268.76 C 659.89 256.88 654.99 241.62 657.80 226.87 C 658.76 222.01 662.19 217.13 667.41 216.45 Z" />
<path fill="#991C1C" d=" M 715.44 245.47 C 729.59 236.73 743.15 226.62 758.66 220.38 C 762.62 227.10 767.04 233.58 770.59 240.55 C 757.14 250.81 744.51 262.19 730.08 271.11 C 717.89 278.70 707.17 288.34 695.19 296.23 C 693.77 297.14 692.14 297.96 690.41 297.78 C 683.00 291.26 677.10 283.24 671.46 275.20 C 685.51 264.41 700.86 255.51 715.44 245.47 Z" />
<path fill="#991C1C" d=" M 507.88 249.96 C 525.19 240.11 544.65 232.53 564.96 234.14 C 580.79 233.74 595.83 238.86 610.82 243.17 C 613.14 259.90 620.83 275.00 627.16 290.43 C 616.11 284.29 606.18 275.77 593.91 272.09 C 580.77 268.39 566.70 267.94 553.29 270.22 C 537.97 272.63 528.06 287.55 525.84 301.96 C 522.91 316.02 528.97 329.67 534.99 342.00 C 538.96 349.64 542.16 357.74 547.36 364.68 C 566.05 387.83 588.66 408.86 616.26 420.82 C 638.63 429.86 665.87 435.15 688.21 423.30 C 693.84 420.53 699.66 416.49 700.72 409.81 C 704.81 390.36 698.71 370.68 691.02 352.95 C 704.14 358.26 718.00 361.58 732.10 362.90 C 735.88 381.57 740.80 401.21 734.92 419.98 C 731.23 434.00 722.76 446.48 711.46 455.48 C 698.27 466.22 681.05 470.19 664.52 472.18 C 637.25 474.70 611.75 462.48 587.69 451.29 C 557.40 433.64 527.73 412.29 508.89 382.05 C 498.25 367.95 492.79 351.02 486.33 334.82 C 482.84 323.93 481.36 312.43 481.21 301.03 C 481.12 288.14 487.03 276.34 493.61 265.63 C 497.50 259.77 501.72 253.66 507.88 249.96 Z" />
<path fill="#991C1C" d=" M 549.04 278.12 C 560.38 274.30 572.76 274.36 584.48 276.38 C 599.96 278.65 612.83 288.50 624.77 297.95 C 612.55 306.95 600.31 315.93 588.64 325.64 C 585.91 327.43 583.54 330.21 580.22 330.83 C 565.99 320.49 550.20 312.62 534.66 304.46 C 534.23 293.96 539.06 282.58 549.04 278.12 Z" />
<path fill="#991C1C" d=" M 700.18 298.48 C 704.87 302.70 709.19 307.33 713.20 312.21 C 707.46 309.77 701.86 307.00 696.56 303.70 C 697.75 301.95 698.96 300.21 700.18 298.48 Z" />
<path fill="#991C1C" d=" M 589.07 333.08 C 603.63 321.82 617.78 309.73 633.64 300.30 C 640.85 309.64 648.52 318.60 656.45 327.32 C 646.95 336.87 637.04 346.01 627.66 355.66 C 616.33 370.67 602.49 383.42 589.99 397.41 C 577.21 388.47 565.91 377.50 556.53 365.04 C 567.01 354.02 578.60 344.12 589.07 333.08 Z" />
<path fill="#991C1C" d=" M 662.08 332.34 C 663.68 331.53 665.01 332.84 666.17 333.79 C 675.14 341.70 682.09 351.66 687.88 362.06 C 693.61 374.71 695.77 388.81 695.58 402.61 C 696.30 413.92 684.14 418.50 675.27 421.44 C 665.17 408.11 654.85 394.85 643.08 382.92 C 637.55 377.58 631.59 372.68 626.37 367.02 C 632.90 358.73 640.77 351.66 648.17 344.17 C 652.53 339.93 656.73 335.37 662.08 332.34 Z" />
<path fill="#991C1C" d=" M 441.72 377.40 C 442.26 373.61 445.37 369.03 450.05 370.91 C 453.75 370.77 456.23 374.03 458.79 376.20 C 469.01 386.39 477.04 398.55 487.27 408.76 C 488.47 409.50 489.86 412.18 491.47 410.46 C 497.41 405.64 502.02 399.46 507.70 394.37 C 509.63 396.70 511.56 399.03 513.51 401.37 C 501.08 416.46 485.81 430.11 478.92 448.91 C 477.25 455.77 477.12 465.14 484.24 469.00 C 485.26 460.69 483.39 451.52 488.05 444.02 C 495.48 431.06 505.07 419.18 516.40 409.42 C 519.39 405.72 522.43 410.43 524.75 412.24 C 533.95 421.55 543.19 430.90 554.07 438.29 C 545.71 448.98 537.73 459.93 530.18 471.19 C 526.08 478.47 518.41 481.92 511.26 485.36 C 511.60 486.40 511.94 487.44 512.30 488.49 C 517.11 487.59 522.86 488.09 527.01 485.02 C 535.04 477.09 540.18 466.89 547.05 458.03 C 551.22 452.60 555.54 447.27 559.25 441.50 C 565.14 445.10 570.83 449.02 576.34 453.19 C 572.85 459.09 569.14 464.87 565.65 470.78 C 578.36 477.35 591.30 483.45 604.04 489.96 C 607.87 492.18 613.13 494.58 613.56 499.61 C 614.26 503.95 609.91 507.18 606.13 508.09 C 596.42 510.27 586.45 510.89 576.74 513.02 C 585.62 525.40 596.33 536.30 605.71 548.29 C 608.87 551.96 610.84 557.31 609.10 562.06 C 606.85 566.24 601.37 564.43 597.69 563.34 C 583.53 557.91 570.26 550.29 555.82 545.56 C 558.14 562.78 563.32 579.61 563.39 597.13 C 561.06 598.48 558.84 600.44 556.09 600.78 C 551.10 599.48 547.99 594.88 544.70 591.29 C 533.47 577.83 522.31 564.30 510.72 551.15 C 500.42 562.96 492.87 576.90 482.86 588.90 C 478.86 594.05 471.55 593.05 469.07 587.02 C 465.04 567.93 463.46 548.43 460.54 529.16 C 440.19 529.23 420.25 534.12 399.96 535.03 C 396.56 535.34 392.87 533.67 391.56 530.38 C 389.94 527.14 392.42 523.66 394.21 521.16 C 403.08 508.58 415.29 498.62 423.57 485.59 C 403.64 475.42 382.63 467.46 362.80 457.15 C 357.80 454.35 358.70 446.84 364.03 445.04 C 381.64 441.48 399.87 442.77 417.70 440.63 C 406.98 423.40 389.82 410.59 381.57 391.84 C 384.36 390.78 386.88 388.67 389.89 388.25 C 394.10 388.73 398.13 390.30 401.96 392.08 C 416.33 398.83 430.39 406.33 445.17 412.20 C 444.43 400.56 441.45 389.09 441.72 377.40 Z" />
</svg>
